<svg width="38" height="38" viewBox="0 0 38 38" fill="none" xmlns="http://www.w3.org/2000/svg">
	<path d="M20.5261 23.485L14.1495 20.2967M14.1405 17.7072L20.5231 14.5159M26 24.7775C26 26.3729 24.7066 27.6663 23.1111 27.6663C21.5156 27.6663 20.2222 26.3729 20.2222 24.7775C20.2222 23.182 21.5156 21.8886 23.1111 21.8886C24.7066 21.8886 26 23.182 26 24.7775ZM26 13.2219C26 14.8174 24.7066 16.1108 23.1111 16.1108C21.5156 16.1108 20.2222 14.8174 20.2222 13.2219C20.2222 11.6264 21.5156 10.333 23.1111 10.333C24.7066 10.333 26 11.6264 26 13.2219ZM14.4444 18.9997C14.4444 20.5952 13.151 21.8886 11.5555 21.8886C9.96003 21.8886 8.66663 20.5952 8.66663 18.9997C8.66663 17.4042 9.96003 16.1108 11.5555 16.1108C13.151 16.1108 14.4444 17.4042 14.4444 18.9997Z" stroke="#EEFF21" />
	<rect x="0.5" y="0.5" width="37" height="37" rx="18.5" stroke="#EEFF21" />
</svg>
